<mxfile host="app.diagrams.net" agent="Mozilla/5.0 (Windows NT 10.0; Win64; x64) AppleWebKit/537.36 (KHTML, like Gecko) Chrome/130.0.0.0 Safari/537.36" version="24.8.0">
  <diagram name="Page-1" id="c4acf3e9-155e-7222-9cf6-157b1a14988f">
    <mxGraphModel dx="1879" dy="745" grid="1" gridSize="10" guides="1" tooltips="1" connect="1" arrows="1" fold="1" page="1" pageScale="1" pageWidth="850" pageHeight="1100" background="none" math="0" shadow="0">
      <root>
        <mxCell id="0" />
        <mxCell id="1" parent="0" />
        <mxCell id="17acba5748e5396b-1" value="&lt;span style=&quot;color: rgba(0, 0, 0, 0); font-family: monospace; font-size: 0px; text-align: start; text-wrap-mode: nowrap;&quot;&gt;%3CmxGraphModel%3E%3Croot%3E%3CmxCell%20id%3D%220%22%2F%3E%3CmxCell%20id%3D%221%22%20parent%3D%220%22%2F%3E%3CmxCell%20id%3D%222%22%20value%3D%22%26lt%3Bspan%20style%3D%26quot%3Btext-align%3A%20left%3B%26quot%3B%26gt%3BOBJECTIVE%26lt%3B%2Fspan%26gt%3B%22%20style%3D%22text%3Bhtml%3D1%3Balign%3Dcenter%3BverticalAlign%3Dmiddle%3BwhiteSpace%3Dwrap%3Brounded%3D0%3B%22%20vertex%3D%221%22%20parent%3D%221%22%3E%3CmxGeometry%20x%3D%2240%22%20y%3D%22310%22%20width%3D%2260%22%20height%3D%2220%22%20as%3D%22geometry%22%2F%3E%3C%2FmxCell%3E%3C%2Froot%3E%3C%2FmxGraphModel%3E&lt;/span&gt;" style="shape=umlFrame;whiteSpace=wrap;html=1;rounded=0;shadow=0;comic=0;labelBackgroundColor=none;strokeWidth=1;fontFamily=Verdana;fontSize=10;align=center;" parent="1" vertex="1">
          <mxGeometry x="-21" width="871" height="700" as="geometry" />
        </mxCell>
        <mxCell id="17acba5748e5396b-20" value="&lt;font style=&quot;font-size: 12px;&quot;&gt;&lt;b&gt;Resume&lt;/b&gt;&lt;/font&gt;" style="swimlane;html=1;fontStyle=0;childLayout=stackLayout;horizontal=1;startSize=26;fillColor=none;horizontalStack=0;resizeParent=1;resizeLast=0;collapsible=1;marginBottom=0;swimlaneFillColor=#ffffff;rounded=0;shadow=0;comic=0;labelBackgroundColor=none;strokeWidth=1;fontFamily=Verdana;fontSize=10;align=center;" parent="1" vertex="1">
          <mxGeometry y="40" width="180" height="140" as="geometry" />
        </mxCell>
        <mxCell id="17acba5748e5396b-21" value="+ uuid: type String" style="text;html=1;strokeColor=none;fillColor=none;align=left;verticalAlign=top;spacingLeft=4;spacingRight=4;whiteSpace=wrap;overflow=hidden;rotatable=0;points=[[0,0.5],[1,0.5]];portConstraint=eastwest;" parent="17acba5748e5396b-20" vertex="1">
          <mxGeometry y="26" width="180" height="26" as="geometry" />
        </mxCell>
        <mxCell id="17acba5748e5396b-24" value="+ fullName: type String" style="text;html=1;strokeColor=none;fillColor=none;align=left;verticalAlign=top;spacingLeft=4;spacingRight=4;whiteSpace=wrap;overflow=hidden;rotatable=0;points=[[0,0.5],[1,0.5]];portConstraint=eastwest;" parent="17acba5748e5396b-20" vertex="1">
          <mxGeometry y="52" width="180" height="28" as="geometry" />
        </mxCell>
        <mxCell id="nUuIiGJIQyJnDqIDd3Fc-6" value="+ contacts: type MapContact" style="text;strokeColor=none;fillColor=none;align=left;verticalAlign=top;spacingLeft=4;spacingRight=4;overflow=hidden;rotatable=0;points=[[0,0.5],[1,0.5]];portConstraint=eastwest;whiteSpace=wrap;html=1;" parent="17acba5748e5396b-20" vertex="1">
          <mxGeometry y="80" width="180" height="26" as="geometry" />
        </mxCell>
        <mxCell id="nUuIiGJIQyJnDqIDd3Fc-5" value="+ sections: type MapSection" style="text;strokeColor=none;fillColor=none;align=left;verticalAlign=top;spacingLeft=4;spacingRight=4;overflow=hidden;rotatable=0;points=[[0,0.5],[1,0.5]];portConstraint=eastwest;whiteSpace=wrap;html=1;" parent="17acba5748e5396b-20" vertex="1">
          <mxGeometry y="106" width="180" height="26" as="geometry" />
        </mxCell>
        <mxCell id="nUuIiGJIQyJnDqIDd3Fc-33" style="edgeStyle=orthogonalEdgeStyle;rounded=0;orthogonalLoop=1;jettySize=auto;html=1;endArrow=diamondThin;endFill=1;exitX=0.005;exitY=0.163;exitDx=0;exitDy=0;exitPerimeter=0;" parent="1" source="9hCajEY7KA2JkdDaErv1-3" target="nUuIiGJIQyJnDqIDd3Fc-5" edge="1">
          <mxGeometry relative="1" as="geometry">
            <Array as="points">
              <mxPoint x="220" y="129" />
              <mxPoint x="220" y="159" />
            </Array>
            <mxPoint x="240" y="150" as="sourcePoint" />
          </mxGeometry>
        </mxCell>
        <mxCell id="nUuIiGJIQyJnDqIDd3Fc-38" value="enum &lt;b&gt;ContactType&lt;/b&gt;" style="swimlane;fontStyle=0;childLayout=stackLayout;horizontal=1;startSize=26;fillColor=none;horizontalStack=0;resizeParent=1;resizeParentMax=0;resizeLast=0;collapsible=1;marginBottom=0;whiteSpace=wrap;html=1;" parent="1" vertex="1">
          <mxGeometry x="520" y="31" width="140" height="78" as="geometry" />
        </mxCell>
        <mxCell id="nUuIiGJIQyJnDqIDd3Fc-39" value="+ title: type String" style="text;strokeColor=none;fillColor=none;align=left;verticalAlign=top;spacingLeft=4;spacingRight=4;overflow=hidden;rotatable=0;points=[[0,0.5],[1,0.5]];portConstraint=eastwest;whiteSpace=wrap;html=1;" parent="nUuIiGJIQyJnDqIDd3Fc-38" vertex="1">
          <mxGeometry y="26" width="140" height="26" as="geometry" />
        </mxCell>
        <mxCell id="nUuIiGJIQyJnDqIDd3Fc-41" value="+ link: type String" style="text;strokeColor=none;fillColor=none;align=left;verticalAlign=top;spacingLeft=4;spacingRight=4;overflow=hidden;rotatable=0;points=[[0,0.5],[1,0.5]];portConstraint=eastwest;whiteSpace=wrap;html=1;" parent="nUuIiGJIQyJnDqIDd3Fc-38" vertex="1">
          <mxGeometry y="52" width="140" height="26" as="geometry" />
        </mxCell>
        <mxCell id="nUuIiGJIQyJnDqIDd3Fc-47" style="edgeStyle=orthogonalEdgeStyle;rounded=0;orthogonalLoop=1;jettySize=auto;html=1;endArrow=diamondThin;endFill=1;" parent="1" source="nUuIiGJIQyJnDqIDd3Fc-42" target="nUuIiGJIQyJnDqIDd3Fc-6" edge="1">
          <mxGeometry relative="1" as="geometry">
            <Array as="points">
              <mxPoint x="200" y="68" />
              <mxPoint x="200" y="133" />
            </Array>
          </mxGeometry>
        </mxCell>
        <mxCell id="nUuIiGJIQyJnDqIDd3Fc-42" value="&lt;b&gt;MapContact&lt;/b&gt;" style="swimlane;fontStyle=0;childLayout=stackLayout;horizontal=1;startSize=22;fillColor=none;horizontalStack=0;resizeParent=1;resizeParentMax=0;resizeLast=0;collapsible=1;marginBottom=0;whiteSpace=wrap;html=1;" parent="1" vertex="1">
          <mxGeometry x="250" y="31" width="190" height="76" as="geometry" />
        </mxCell>
        <mxCell id="nUuIiGJIQyJnDqIDd3Fc-43" value="+ contactType: type&amp;nbsp;&lt;span style=&quot;text-align: center;&quot;&gt;ContactType&lt;/span&gt;" style="text;strokeColor=none;fillColor=none;align=left;verticalAlign=top;spacingLeft=4;spacingRight=4;overflow=hidden;rotatable=0;points=[[0,0.5],[1,0.5]];portConstraint=eastwest;whiteSpace=wrap;html=1;" parent="nUuIiGJIQyJnDqIDd3Fc-42" vertex="1">
          <mxGeometry y="22" width="190" height="28" as="geometry" />
        </mxCell>
        <mxCell id="9hCajEY7KA2JkdDaErv1-1" value="+ value: type String" style="text;strokeColor=none;fillColor=none;align=left;verticalAlign=top;spacingLeft=4;spacingRight=4;overflow=hidden;rotatable=0;points=[[0,0.5],[1,0.5]];portConstraint=eastwest;whiteSpace=wrap;html=1;" parent="nUuIiGJIQyJnDqIDd3Fc-42" vertex="1">
          <mxGeometry y="50" width="190" height="26" as="geometry" />
        </mxCell>
        <mxCell id="nUuIiGJIQyJnDqIDd3Fc-48" style="edgeStyle=orthogonalEdgeStyle;rounded=0;orthogonalLoop=1;jettySize=auto;html=1;endArrow=diamondThin;endFill=1;" parent="1" source="nUuIiGJIQyJnDqIDd3Fc-38" target="nUuIiGJIQyJnDqIDd3Fc-43" edge="1">
          <mxGeometry relative="1" as="geometry">
            <mxPoint x="640" y="95" as="sourcePoint" />
            <Array as="points">
              <mxPoint x="470" y="40" />
              <mxPoint x="470" y="66" />
            </Array>
          </mxGeometry>
        </mxCell>
        <mxCell id="9hCajEY7KA2JkdDaErv1-3" value="&lt;span style=&quot;font-family: Verdana; text-wrap-mode: nowrap;&quot;&gt;&lt;b&gt;MapSection&lt;/b&gt;&lt;/span&gt;" style="swimlane;fontStyle=0;childLayout=stackLayout;horizontal=1;startSize=26;fillColor=none;horizontalStack=0;resizeParent=1;resizeParentMax=0;resizeLast=0;collapsible=1;marginBottom=0;whiteSpace=wrap;html=1;" parent="1" vertex="1">
          <mxGeometry x="250" y="120" width="190" height="78" as="geometry" />
        </mxCell>
        <mxCell id="9hCajEY7KA2JkdDaErv1-12" value="+ sectionType: type SectionType" style="text;strokeColor=none;fillColor=none;align=left;verticalAlign=top;spacingLeft=4;spacingRight=4;overflow=hidden;rotatable=0;points=[[0,0.5],[1,0.5]];portConstraint=eastwest;whiteSpace=wrap;html=1;" parent="9hCajEY7KA2JkdDaErv1-3" vertex="1">
          <mxGeometry y="26" width="190" height="26" as="geometry" />
        </mxCell>
        <mxCell id="9hCajEY7KA2JkdDaErv1-4" value="+ section: type AbstractSection" style="text;strokeColor=none;fillColor=none;align=left;verticalAlign=top;spacingLeft=4;spacingRight=4;overflow=hidden;rotatable=0;points=[[0,0.5],[1,0.5]];portConstraint=eastwest;whiteSpace=wrap;html=1;" parent="9hCajEY7KA2JkdDaErv1-3" vertex="1">
          <mxGeometry y="52" width="190" height="26" as="geometry" />
        </mxCell>
        <mxCell id="9hCajEY7KA2JkdDaErv1-7" value="enum&amp;nbsp;&lt;span style=&quot;text-align: left;&quot;&gt;&lt;b&gt;SectionType&lt;/b&gt;&lt;/span&gt;" style="swimlane;fontStyle=0;childLayout=stackLayout;horizontal=1;startSize=26;fillColor=none;horizontalStack=0;resizeParent=1;resizeParentMax=0;resizeLast=0;collapsible=1;marginBottom=0;whiteSpace=wrap;html=1;" parent="1" vertex="1">
          <mxGeometry x="520" y="128" width="140" height="52" as="geometry" />
        </mxCell>
        <mxCell id="9hCajEY7KA2JkdDaErv1-8" value="+ title: type String" style="text;strokeColor=none;fillColor=none;align=left;verticalAlign=top;spacingLeft=4;spacingRight=4;overflow=hidden;rotatable=0;points=[[0,0.5],[1,0.5]];portConstraint=eastwest;whiteSpace=wrap;html=1;" parent="9hCajEY7KA2JkdDaErv1-7" vertex="1">
          <mxGeometry y="26" width="140" height="26" as="geometry" />
        </mxCell>
        <mxCell id="9hCajEY7KA2JkdDaErv1-11" style="edgeStyle=orthogonalEdgeStyle;rounded=0;orthogonalLoop=1;jettySize=auto;html=1;endArrow=diamondThin;endFill=1;" parent="1" source="9hCajEY7KA2JkdDaErv1-7" target="9hCajEY7KA2JkdDaErv1-3" edge="1">
          <mxGeometry relative="1" as="geometry">
            <mxPoint x="610" y="50" as="sourcePoint" />
            <mxPoint x="538" y="76" as="targetPoint" />
            <Array as="points">
              <mxPoint x="480" y="140" />
              <mxPoint x="480" y="160" />
            </Array>
          </mxGeometry>
        </mxCell>
        <mxCell id="9hCajEY7KA2JkdDaErv1-14" value="&lt;span style=&quot;text-align: left;&quot;&gt;&lt;b&gt;AbstractSection&lt;/b&gt;&lt;/span&gt;" style="swimlane;fontStyle=0;childLayout=stackLayout;horizontal=1;startSize=26;fillColor=none;horizontalStack=0;resizeParent=1;resizeParentMax=0;resizeLast=0;collapsible=1;marginBottom=0;whiteSpace=wrap;html=1;" parent="1" vertex="1">
          <mxGeometry x="250" y="220" width="140" height="52" as="geometry" />
        </mxCell>
        <mxCell id="9hCajEY7KA2JkdDaErv1-18" value="&lt;span style=&quot;font-family: Helvetica; font-size: 12px; text-align: left; text-wrap-mode: wrap;&quot;&gt;&lt;b&gt;TextSection&lt;/b&gt;&lt;/span&gt;" style="swimlane;html=1;fontStyle=0;childLayout=stackLayout;horizontal=1;startSize=20;fillColor=none;horizontalStack=0;resizeParent=1;resizeLast=0;collapsible=1;marginBottom=0;swimlaneFillColor=#ffffff;rounded=0;shadow=0;comic=0;labelBackgroundColor=none;strokeWidth=1;fontFamily=Verdana;fontSize=10;align=center;" parent="1" vertex="1">
          <mxGeometry x="40" y="350" width="130" height="50" as="geometry" />
        </mxCell>
        <mxCell id="9hCajEY7KA2JkdDaErv1-20" value="+ text: type String" style="text;html=1;strokeColor=none;fillColor=none;align=left;verticalAlign=top;spacingLeft=4;spacingRight=4;whiteSpace=wrap;overflow=hidden;rotatable=0;points=[[0,0.5],[1,0.5]];portConstraint=eastwest;" parent="9hCajEY7KA2JkdDaErv1-18" vertex="1">
          <mxGeometry y="20" width="130" height="26" as="geometry" />
        </mxCell>
        <mxCell id="9hCajEY7KA2JkdDaErv1-21" value="&lt;b&gt;&lt;font style=&quot;font-size: 12px;&quot;&gt;List&lt;/font&gt;&lt;span style=&quot;font-family: Helvetica; font-size: 12px; text-align: left; text-wrap-mode: wrap;&quot;&gt;Section&lt;/span&gt;&lt;/b&gt;" style="swimlane;html=1;fontStyle=0;childLayout=stackLayout;horizontal=1;startSize=26;fillColor=none;horizontalStack=0;resizeParent=1;resizeLast=0;collapsible=1;marginBottom=0;swimlaneFillColor=#ffffff;rounded=0;shadow=0;comic=0;labelBackgroundColor=none;strokeWidth=1;fontFamily=Verdana;fontSize=10;align=center;" parent="1" vertex="1">
          <mxGeometry x="250" y="348" width="150" height="52" as="geometry" />
        </mxCell>
        <mxCell id="9hCajEY7KA2JkdDaErv1-23" value="+ list: type List&amp;lt;String&amp;gt;" style="text;html=1;strokeColor=none;fillColor=none;align=left;verticalAlign=top;spacingLeft=4;spacingRight=4;whiteSpace=wrap;overflow=hidden;rotatable=0;points=[[0,0.5],[1,0.5]];portConstraint=eastwest;" parent="9hCajEY7KA2JkdDaErv1-21" vertex="1">
          <mxGeometry y="26" width="150" height="26" as="geometry" />
        </mxCell>
        <mxCell id="9hCajEY7KA2JkdDaErv1-27" value="&lt;b&gt;CompanySection&lt;/b&gt;" style="swimlane;fontStyle=0;childLayout=stackLayout;horizontal=1;startSize=26;fillColor=none;horizontalStack=0;resizeParent=1;resizeParentMax=0;resizeLast=0;collapsible=1;marginBottom=0;whiteSpace=wrap;html=1;" parent="1" vertex="1">
          <mxGeometry x="450" y="348" width="160" height="50" as="geometry" />
        </mxCell>
        <mxCell id="9hCajEY7KA2JkdDaErv1-30" value="+ list: type List&amp;lt;Company&amp;gt;" style="text;strokeColor=none;fillColor=none;align=left;verticalAlign=top;spacingLeft=4;spacingRight=4;overflow=hidden;rotatable=0;points=[[0,0.5],[1,0.5]];portConstraint=eastwest;whiteSpace=wrap;html=1;" parent="9hCajEY7KA2JkdDaErv1-27" vertex="1">
          <mxGeometry y="26" width="160" height="24" as="geometry" />
        </mxCell>
        <mxCell id="9hCajEY7KA2JkdDaErv1-31" value="&lt;b style=&quot;box-sizing: inherit; color: rgb(29, 28, 29); font-family: Slack-Lato, Slack-Fractions, appleLogo, sans-serif; font-variant-ligatures: common-ligatures; text-align: left; background-color: rgb(248, 248, 248);&quot; data-stringify-type=&quot;bold&quot;&gt;&lt;font style=&quot;font-size: 12px;&quot;&gt;Company&lt;/font&gt;&lt;/b&gt;" style="swimlane;fontStyle=0;childLayout=stackLayout;horizontal=1;startSize=26;fillColor=none;horizontalStack=0;resizeParent=1;resizeParentMax=0;resizeLast=0;collapsible=1;marginBottom=0;whiteSpace=wrap;html=1;" parent="1" vertex="1">
          <mxGeometry x="470" y="420" width="180" height="104" as="geometry" />
        </mxCell>
        <mxCell id="9hCajEY7KA2JkdDaErv1-32" value="+ name: type String" style="text;strokeColor=none;fillColor=none;align=left;verticalAlign=top;spacingLeft=4;spacingRight=4;overflow=hidden;rotatable=0;points=[[0,0.5],[1,0.5]];portConstraint=eastwest;whiteSpace=wrap;html=1;" parent="9hCajEY7KA2JkdDaErv1-31" vertex="1">
          <mxGeometry y="26" width="180" height="26" as="geometry" />
        </mxCell>
        <mxCell id="9hCajEY7KA2JkdDaErv1-33" value="+ website: type&amp;nbsp;&lt;span style=&quot;text-align: center;&quot;&gt;String&lt;/span&gt;" style="text;strokeColor=none;fillColor=none;align=left;verticalAlign=top;spacingLeft=4;spacingRight=4;overflow=hidden;rotatable=0;points=[[0,0.5],[1,0.5]];portConstraint=eastwest;whiteSpace=wrap;html=1;" parent="9hCajEY7KA2JkdDaErv1-31" vertex="1">
          <mxGeometry y="52" width="180" height="26" as="geometry" />
        </mxCell>
        <mxCell id="9hCajEY7KA2JkdDaErv1-34" value="+ periods: type List&amp;lt;Period&amp;gt;" style="text;strokeColor=none;fillColor=none;align=left;verticalAlign=top;spacingLeft=4;spacingRight=4;overflow=hidden;rotatable=0;points=[[0,0.5],[1,0.5]];portConstraint=eastwest;whiteSpace=wrap;html=1;" parent="9hCajEY7KA2JkdDaErv1-31" vertex="1">
          <mxGeometry y="78" width="180" height="26" as="geometry" />
        </mxCell>
        <mxCell id="9hCajEY7KA2JkdDaErv1-35" value="&lt;b&gt;Period&lt;/b&gt;" style="swimlane;fontStyle=0;childLayout=stackLayout;horizontal=1;startSize=26;fillColor=none;horizontalStack=0;resizeParent=1;resizeParentMax=0;resizeLast=0;collapsible=1;marginBottom=0;whiteSpace=wrap;html=1;" parent="1" vertex="1">
          <mxGeometry x="510" y="540" width="160" height="130" as="geometry" />
        </mxCell>
        <mxCell id="9hCajEY7KA2JkdDaErv1-36" value="+ begdate: type Date" style="text;strokeColor=none;fillColor=none;align=left;verticalAlign=top;spacingLeft=4;spacingRight=4;overflow=hidden;rotatable=0;points=[[0,0.5],[1,0.5]];portConstraint=eastwest;whiteSpace=wrap;html=1;" parent="9hCajEY7KA2JkdDaErv1-35" vertex="1">
          <mxGeometry y="26" width="160" height="26" as="geometry" />
        </mxCell>
        <mxCell id="9hCajEY7KA2JkdDaErv1-37" value="+ enddate: type Date" style="text;strokeColor=none;fillColor=none;align=left;verticalAlign=top;spacingLeft=4;spacingRight=4;overflow=hidden;rotatable=0;points=[[0,0.5],[1,0.5]];portConstraint=eastwest;whiteSpace=wrap;html=1;" parent="9hCajEY7KA2JkdDaErv1-35" vertex="1">
          <mxGeometry y="52" width="160" height="26" as="geometry" />
        </mxCell>
        <mxCell id="9hCajEY7KA2JkdDaErv1-38" value="+ title: type String" style="text;strokeColor=none;fillColor=none;align=left;verticalAlign=top;spacingLeft=4;spacingRight=4;overflow=hidden;rotatable=0;points=[[0,0.5],[1,0.5]];portConstraint=eastwest;whiteSpace=wrap;html=1;" parent="9hCajEY7KA2JkdDaErv1-35" vertex="1">
          <mxGeometry y="78" width="160" height="26" as="geometry" />
        </mxCell>
        <mxCell id="9hCajEY7KA2JkdDaErv1-39" value="+ description: type String" style="text;strokeColor=none;fillColor=none;align=left;verticalAlign=top;spacingLeft=4;spacingRight=4;overflow=hidden;rotatable=0;points=[[0,0.5],[1,0.5]];portConstraint=eastwest;whiteSpace=wrap;html=1;" parent="9hCajEY7KA2JkdDaErv1-35" vertex="1">
          <mxGeometry y="104" width="160" height="26" as="geometry" />
        </mxCell>
        <mxCell id="9hCajEY7KA2JkdDaErv1-40" style="edgeStyle=orthogonalEdgeStyle;rounded=0;orthogonalLoop=1;jettySize=auto;html=1;endArrow=diamondThin;endFill=1;" parent="1" source="9hCajEY7KA2JkdDaErv1-14" target="9hCajEY7KA2JkdDaErv1-4" edge="1">
          <mxGeometry relative="1" as="geometry">
            <mxPoint x="550" y="150" as="sourcePoint" />
            <mxPoint x="450" y="170" as="targetPoint" />
            <Array as="points">
              <mxPoint x="480" y="230" />
              <mxPoint x="480" y="185" />
            </Array>
          </mxGeometry>
        </mxCell>
        <mxCell id="9hCajEY7KA2JkdDaErv1-41" value="&lt;span style=&quot;text-align: left;&quot;&gt;OBJECTIVE&lt;/span&gt;" style="text;html=1;align=center;verticalAlign=middle;whiteSpace=wrap;rounded=0;" parent="1" vertex="1">
          <mxGeometry x="40" y="310" width="60" height="20" as="geometry" />
        </mxCell>
        <mxCell id="9hCajEY7KA2JkdDaErv1-42" value="&lt;span style=&quot;text-align: left;&quot;&gt;PERSONAL&lt;/span&gt;" style="text;html=1;align=center;verticalAlign=middle;whiteSpace=wrap;rounded=0;" parent="1" vertex="1">
          <mxGeometry x="40" y="330" width="60" height="20" as="geometry" />
        </mxCell>
        <mxCell id="9hCajEY7KA2JkdDaErv1-43" value="&lt;span style=&quot;&quot;&gt;ACHIEVEMENT&lt;/span&gt;" style="text;html=1;align=left;verticalAlign=middle;whiteSpace=wrap;rounded=0;" parent="1" vertex="1">
          <mxGeometry x="250" y="310" width="100" height="20" as="geometry" />
        </mxCell>
        <mxCell id="9hCajEY7KA2JkdDaErv1-44" value="&lt;span style=&quot;&quot;&gt;QUALIFICATIONS&lt;/span&gt;" style="text;html=1;align=left;verticalAlign=middle;whiteSpace=wrap;rounded=0;" parent="1" vertex="1">
          <mxGeometry x="250" y="330" width="80" height="20" as="geometry" />
        </mxCell>
        <mxCell id="9hCajEY7KA2JkdDaErv1-46" value="" style="endArrow=none;dashed=1;html=1;rounded=0;exitX=0.808;exitY=0;exitDx=0;exitDy=0;exitPerimeter=0;" parent="1" source="9hCajEY7KA2JkdDaErv1-18" edge="1">
          <mxGeometry width="50" height="50" relative="1" as="geometry">
            <mxPoint x="150" y="345" as="sourcePoint" />
            <mxPoint x="250" y="270" as="targetPoint" />
          </mxGeometry>
        </mxCell>
        <mxCell id="9hCajEY7KA2JkdDaErv1-47" value="" style="endArrow=none;dashed=1;html=1;rounded=0;" parent="1" source="9hCajEY7KA2JkdDaErv1-21" edge="1">
          <mxGeometry width="50" height="50" relative="1" as="geometry">
            <mxPoint x="370" y="330" as="sourcePoint" />
            <mxPoint x="315" y="270" as="targetPoint" />
          </mxGeometry>
        </mxCell>
        <mxCell id="9hCajEY7KA2JkdDaErv1-48" value="" style="endArrow=none;dashed=1;html=1;rounded=0;" parent="1" source="9hCajEY7KA2JkdDaErv1-27" edge="1">
          <mxGeometry width="50" height="50" relative="1" as="geometry">
            <mxPoint x="310" y="550" as="sourcePoint" />
            <mxPoint x="370" y="270" as="targetPoint" />
          </mxGeometry>
        </mxCell>
        <mxCell id="9hCajEY7KA2JkdDaErv1-49" value="&lt;span style=&quot;text-align: center;&quot;&gt;EXPERIENCE&lt;/span&gt;" style="text;html=1;align=left;verticalAlign=middle;whiteSpace=wrap;rounded=0;" parent="1" vertex="1">
          <mxGeometry x="500" y="308" width="100" height="20" as="geometry" />
        </mxCell>
        <mxCell id="9hCajEY7KA2JkdDaErv1-50" value="EDUCATION" style="text;html=1;align=left;verticalAlign=middle;whiteSpace=wrap;rounded=0;" parent="1" vertex="1">
          <mxGeometry x="500" y="328" width="100" height="20" as="geometry" />
        </mxCell>
        <mxCell id="9hCajEY7KA2JkdDaErv1-52" value="&lt;h1 style=&quot;margin-top: 0px; line-height: 60%; margin-bottom: 0px;&quot;&gt;&lt;span style=&quot;font-weight: normal; font-size: 12px;&quot;&gt;&lt;span style=&quot;&quot;&gt;OB&lt;/span&gt;&lt;span style=&quot;&quot;&gt;&lt;font style=&quot;font-size: 12px;&quot;&gt;JECTIVE&lt;/font&gt;&lt;/span&gt;&lt;/span&gt;&lt;/h1&gt;&lt;h1 style=&quot;margin-top: 0px; line-height: 60%; margin-bottom: 0px;&quot;&gt;&lt;span style=&quot;background-color: initial; font-weight: normal; font-size: 12px;&quot;&gt;&lt;font style=&quot;font-size: 12px;&quot;&gt;PERSONAL&lt;/font&gt;&lt;/span&gt;&lt;/h1&gt;&lt;h1 style=&quot;margin-top: 0px; line-height: 60%; margin-bottom: 0px;&quot;&gt;&lt;span style=&quot;background-color: initial; font-weight: normal; font-size: 12px;&quot;&gt;&lt;font style=&quot;font-size: 12px;&quot;&gt;ACHIEVEMENT&lt;/font&gt;&lt;/span&gt;&lt;/h1&gt;&lt;div&gt;QUALIFICATIONS&lt;/div&gt;&lt;div&gt;&lt;span style=&quot;text-align: center;&quot;&gt;EXPERIENCE&lt;/span&gt;&lt;/div&gt;&lt;div&gt;EDUCATION&lt;span style=&quot;font-size: 12px; font-weight: 400;&quot;&gt;&lt;/span&gt;&lt;/div&gt;&lt;div&gt;&lt;span style=&quot;font-size: 12px; font-weight: 400;&quot;&gt;&lt;br&gt;&lt;/span&gt;&lt;/div&gt;" style="text;html=1;whiteSpace=wrap;overflow=hidden;rounded=0;" parent="1" vertex="1">
          <mxGeometry x="670" y="120" width="120" height="112" as="geometry" />
        </mxCell>
        <mxCell id="9hCajEY7KA2JkdDaErv1-53" style="edgeStyle=orthogonalEdgeStyle;rounded=0;orthogonalLoop=1;jettySize=auto;html=1;endArrow=diamondThin;endFill=1;exitX=0.677;exitY=0;exitDx=0;exitDy=0;exitPerimeter=0;" parent="1" source="9hCajEY7KA2JkdDaErv1-31" target="9hCajEY7KA2JkdDaErv1-30" edge="1">
          <mxGeometry relative="1" as="geometry">
            <mxPoint x="670" y="310" as="sourcePoint" />
            <mxPoint x="720" y="265" as="targetPoint" />
            <Array as="points">
              <mxPoint x="630" y="420" />
              <mxPoint x="630" y="380" />
            </Array>
          </mxGeometry>
        </mxCell>
        <mxCell id="9hCajEY7KA2JkdDaErv1-54" style="edgeStyle=orthogonalEdgeStyle;rounded=0;orthogonalLoop=1;jettySize=auto;html=1;endArrow=diamondThin;endFill=1;" parent="1" source="9hCajEY7KA2JkdDaErv1-35" target="9hCajEY7KA2JkdDaErv1-34" edge="1">
          <mxGeometry relative="1" as="geometry">
            <mxPoint x="720" y="565" as="sourcePoint" />
            <mxPoint x="770" y="520" as="targetPoint" />
            <Array as="points">
              <mxPoint x="710" y="550" />
              <mxPoint x="710" y="511" />
            </Array>
          </mxGeometry>
        </mxCell>
      </root>
    </mxGraphModel>
  </diagram>
</mxfile>
